<svg width="38" height="38" viewBox="0 0 38 38" fill="none" xmlns="http://www.w3.org/2000/svg">
  <circle cx="19" cy="19" r="19" fill="#1abc9c"/>
  <path d="M28 13.5c-.7.3-1.4.5-2.2.6a3.7 3.7 0 0 0 1.6-2c-.7.4-1.5.7-2.3.9a3.7 3.7 0 0 0-6.3 3.4c-3-.1-5.7-1.6-7.5-4a3.7 3.7 0 0 0 1.1 5c-.6 0-1.2-.2-1.7-.5v.1a3.7 3.7 0 0 0 3 3.6c-.3.1-.7.2-1 .2-.2 0-.5 0-.7-.1a3.7 3.7 0 0 0 3.5 2.6A7.5 7.5 0 0 1 9 25.1c-.5 0-1 0-1.5-.1a10.6 10.6 0 0 0 5.7 1.7c6.8 0 10.5-5.6 10.5-10.5v-.5c.7-.5 1.3-1.1 1.8-1.8z" fill="#fff"/>
</svg>
